<svg width="1280" height="832" viewBox="0 0 1280 832" fill="none" xmlns="http://www.w3.org/2000/svg">
<g clip-path="url(#clip0_1_3)">
<rect width="1280" height="832" fill="white"/>
<path d="M444.944 272.662C444.87 269.947 445.228 267.688 446.018 265.883C446.824 264.078 447.942 262.728 449.374 261.833C450.821 260.924 452.476 260.469 454.341 260.469C455.787 260.469 457.145 260.775 458.412 261.386C459.68 261.983 461.134 263.004 462.775 264.451C463.714 265.256 464.49 265.86 465.102 266.263C465.713 266.666 466.414 266.867 467.205 266.867C468.338 266.867 469.255 266.435 469.956 265.57C470.672 264.69 471.008 263.362 470.963 261.587H477.451C477.526 264.287 477.153 266.539 476.332 268.344C475.527 270.148 474.401 271.506 472.954 272.415C471.507 273.31 469.874 273.758 468.055 273.758C466.563 273.758 465.176 273.445 463.893 272.818C462.611 272.192 461.172 271.185 459.576 269.798C458.591 268.933 457.801 268.314 457.204 267.941C456.623 267.568 455.944 267.382 455.168 267.382C454.08 267.382 453.17 267.792 452.439 268.612C451.723 269.418 451.38 270.767 451.41 272.662H444.944ZM502.435 290H486.909V244.182H502.748C507.297 244.182 511.205 245.099 514.471 246.934C517.753 248.753 520.273 251.371 522.033 254.786C523.793 258.202 524.673 262.288 524.673 267.046C524.673 271.819 523.786 275.92 522.011 279.351C520.251 282.781 517.708 285.414 514.382 287.248C511.071 289.083 507.089 290 502.435 290ZM495.209 282.819H502.032C505.224 282.819 507.886 282.237 510.019 281.074C512.152 279.895 513.755 278.143 514.829 275.816C515.903 273.474 516.44 270.551 516.44 267.046C516.44 263.541 515.903 260.633 514.829 258.321C513.755 255.994 512.167 254.257 510.064 253.108C507.976 251.945 505.381 251.363 502.278 251.363H495.209V282.819ZM535.982 290H527.123L543.253 244.182H553.5L569.652 290H560.793L548.555 253.578H548.197L535.982 290ZM536.273 272.035H560.435V278.702H536.273V272.035ZM575.687 290V244.182H592.869C596.389 244.182 599.342 244.793 601.728 246.016C604.13 247.239 605.942 248.955 607.165 251.162C608.403 253.354 609.022 255.912 609.022 258.836C609.022 261.774 608.395 264.324 607.142 266.487C605.904 268.635 604.077 270.298 601.661 271.476C599.245 272.639 596.277 273.221 592.757 273.221H580.52V266.33H591.638C593.697 266.33 595.382 266.047 596.695 265.48C598.007 264.898 598.977 264.056 599.603 262.952C600.244 261.833 600.565 260.461 600.565 258.836C600.565 257.21 600.244 255.823 599.603 254.674C598.962 253.511 597.985 252.631 596.672 252.034C595.36 251.423 593.667 251.117 591.594 251.117H583.987V290H575.687ZM599.357 269.239L610.7 290H601.438L590.296 269.239H599.357ZM616.662 290V244.182H624.962V265.234H625.521L643.396 244.182H653.531L635.812 264.742L653.688 290H643.71L630.04 270.357L624.962 276.353V290H616.662ZM659.297 244.182H669.454L683.057 277.382H683.594L697.196 244.182H707.353V290H699.388V258.522H698.963L686.301 289.866H680.35L667.687 258.455H667.262V290H659.297V244.182ZM722.275 290H713.416L729.546 244.182H739.793L755.945 290H747.086L734.848 253.578H734.49L722.275 290ZM722.566 272.035H746.728V278.702H722.566V272.035ZM786.142 256.777C785.933 254.824 785.053 253.302 783.502 252.213C781.966 251.125 779.967 250.58 777.506 250.58C775.776 250.58 774.292 250.841 773.054 251.363C771.816 251.885 770.869 252.594 770.213 253.489C769.557 254.384 769.221 255.405 769.206 256.554C769.206 257.508 769.423 258.336 769.855 259.037C770.303 259.738 770.907 260.335 771.667 260.827C772.428 261.304 773.271 261.707 774.195 262.035C775.12 262.363 776.052 262.639 776.992 262.863L781.287 263.936C783.017 264.339 784.68 264.884 786.276 265.57C787.887 266.256 789.326 267.121 790.594 268.165C791.877 269.209 792.891 270.469 793.637 271.946C794.382 273.422 794.755 275.152 794.755 277.136C794.755 279.821 794.069 282.185 792.697 284.228C791.325 286.256 789.341 287.845 786.746 288.993C784.166 290.127 781.041 290.694 777.372 290.694C773.808 290.694 770.713 290.142 768.088 289.038C765.478 287.934 763.434 286.324 761.958 284.206C760.496 282.088 759.706 279.507 759.586 276.465H767.752C767.871 278.061 768.364 279.388 769.229 280.447C770.094 281.506 771.22 282.297 772.607 282.819C774.009 283.341 775.575 283.602 777.305 283.602C779.11 283.602 780.691 283.333 782.048 282.796C783.42 282.244 784.494 281.484 785.27 280.514C786.045 279.53 786.44 278.381 786.455 277.069C786.44 275.876 786.09 274.891 785.404 274.116C784.718 273.325 783.756 272.669 782.518 272.147C781.295 271.61 779.863 271.133 778.222 270.715L773.01 269.373C769.236 268.403 766.253 266.934 764.061 264.966C761.883 262.982 760.794 260.349 760.794 257.068C760.794 254.369 761.525 252.005 762.987 249.976C764.463 247.948 766.469 246.374 769.005 245.256C771.54 244.122 774.412 243.555 777.618 243.555C780.87 243.555 783.718 244.122 786.164 245.256C788.625 246.374 790.557 247.933 791.959 249.931C793.361 251.915 794.084 254.197 794.129 256.777H786.142ZM802.155 290V244.182H810.455V265.234H811.014L828.89 244.182H839.024L821.305 264.742L839.181 290H829.203L815.533 270.357L810.455 276.353V290H802.155Z" fill="black"/>
<path d="M244 0.5C244 113.456 153.772 205 42.5 205C-68.7716 205 -159 113.456 -159 0.5C-159 -112.456 -68.7716 -204 42.5 -204C153.772 -204 244 -112.456 244 0.5Z" fill="white" stroke="black" stroke-width="2"/>
<path d="M266 -18.5C266 98.3038 170.865 193 53.5 193C-63.8649 193 -159 98.3038 -159 -18.5C-159 -135.304 -63.8649 -230 53.5 -230C170.865 -230 266 -135.304 266 -18.5Z" fill="white" stroke="black" stroke-width="2"/>
</g>
<defs>
<clipPath id="clip0_1_3">
<rect width="1280" height="832" fill="white"/>
</clipPath>
</defs>
</svg>
